<svg xmlns="http://www.w3.org/2000/svg" viewBox="0 0 128 128">
  <ellipse cx="64" cy="28" rx="36" ry="12" fill="#336791"/>
  <path d="M28 28v18c0 6.6 16.1 12 36 12s36-5.4 36-12V28c0 6.6-16.1 12-36 12S28 34.6 28 28z" fill="#2a5574"/>
  <path d="M28 46v18c0 6.6 16.1 12 36 12s36-5.4 36-12V46c0 6.6-16.1 12-36 12S28 52.6 28 46z" fill="#336791"/>
  <path d="M28 64v18c0 6.6 16.1 12 36 12s36-5.4 36-12V64c0 6.6-16.1 12-36 12S28 70.6 28 64z" fill="#2a5574"/>
  <ellipse cx="64" cy="28" rx="36" ry="12" fill="#4a90c4"/>
  <ellipse cx="64" cy="28" rx="22" ry="6" fill="#d6e8f5"/>
</svg>
